<svg width="240" height="70" viewBox="0 0 240 70" fill="none" xmlns="http://www.w3.org/2000/svg">
<rect width="240" height="70" rx="10" fill="#5193D0"/>
<path d="M89.4347 27.4545H92.6591L96.9773 37.9943H97.1477L101.466 27.4545H104.69V42H102.162V32.0071H102.027L98.0071 41.9574H96.1179L92.098 31.9858H91.9631V42H89.4347V27.4545ZM109.044 46.0909C108.694 46.0909 108.369 46.0625 108.071 46.0057C107.777 45.9536 107.543 45.892 107.368 45.821L107.964 43.8182C108.339 43.9271 108.672 43.9792 108.966 43.9744C109.259 43.9697 109.518 43.8774 109.74 43.6974C109.967 43.5223 110.159 43.2287 110.315 42.8168L110.536 42.2273L106.58 31.0909H109.307L111.821 39.3295H111.935L114.456 31.0909H117.19L112.822 43.321C112.619 43.8987 112.349 44.3935 112.013 44.8054C111.677 45.2221 111.265 45.5393 110.777 45.7571C110.294 45.9796 109.716 46.0909 109.044 46.0909ZM136.494 32.3622H133.838C133.762 31.9266 133.623 31.5407 133.419 31.2045C133.215 30.8636 132.962 30.5748 132.659 30.3381C132.356 30.1013 132.01 29.9238 131.622 29.8054C131.239 29.6823 130.824 29.6207 130.379 29.6207C129.589 29.6207 128.888 29.8196 128.277 30.2173C127.666 30.6103 127.188 31.188 126.842 31.9503C126.497 32.7079 126.324 33.6335 126.324 34.7273C126.324 35.84 126.497 36.7775 126.842 37.5398C127.193 38.2973 127.671 38.8703 128.277 39.2585C128.888 39.642 129.586 39.8338 130.372 39.8338C130.808 39.8338 131.215 39.777 131.594 39.6634C131.977 39.545 132.321 39.3722 132.624 39.1449C132.931 38.9176 133.189 38.6383 133.398 38.3068C133.611 37.9754 133.758 37.5966 133.838 37.1705L136.494 37.1847C136.395 37.8759 136.179 38.5246 135.848 39.1307C135.521 39.7367 135.093 40.2718 134.562 40.7358C134.032 41.1951 133.412 41.5549 132.702 41.8153C131.991 42.071 131.203 42.1989 130.337 42.1989C129.058 42.1989 127.917 41.9029 126.913 41.3111C125.91 40.7192 125.119 39.8646 124.541 38.7472C123.964 37.6297 123.675 36.2898 123.675 34.7273C123.675 33.16 123.966 31.8201 124.548 30.7074C125.131 29.59 125.924 28.7353 126.928 28.1435C127.931 27.5516 129.068 27.2557 130.337 27.2557C131.146 27.2557 131.899 27.3693 132.595 27.5966C133.291 27.8239 133.911 28.1577 134.456 28.598C135 29.0336 135.448 29.5687 135.798 30.2031C136.153 30.8329 136.385 31.5526 136.494 32.3622ZM140.853 27.4545L144.639 38.9034H144.788L148.566 27.4545H151.464L146.336 42H143.083L137.963 27.4545H140.853Z" fill="white"/>
</svg>
